# xmcd
#
# Track frame offsets:
#	150
#	16035
#	29392
#	44576
#	54509
#	65423
#	75114
#	87460
#	101224
#	115383
#	131320
#	146348
#
# Disc length: 2036 seconds
#
# Revision: 0
# Processed by: cddbd v1.5.2PL0 Copyright (c) Steve Scherf et al.
# Submitted via: dBpowerAMP V4.0
#
DISCID=9607f20c
DTITLE=David Wells - Blue Groove
DYEAR=1900
DGENRE=Blues
TTITLE0=Blue Groove
TTITLE1=Listen To My Kiss
TTITLE2=Best Friend
TTITLE3=Florida
TTITLE4=Monument To War
TTITLE5=Nice Day
TTITLE6=Kauai
TTITLE7=Song Inside My Heart
TTITLE8=Way It Goes
TTITLE9=You Say
TTITLE10=Magnetic Love
TTITLE11=Magnetic Again?
EXTD=
EXTT0=
EXTT1=
EXTT2=
EXTT3=
EXTT4=
EXTT5=
EXTT6=
EXTT7=
EXTT8=
EXTT9=
EXTT10=
EXTT11=
PLAYORDER=
